<?xml version="1.0" encoding="UTF-8" standalone="no"?>
<!-- Created with Inkscape (http://www.inkscape.org/) -->

<svg
   width="100mm"
   height="100mm"
   viewBox="0 0 100 100"
   version="1.1"
   id="svg57241"
   inkscape:version="1.1.2 (0a00cf5339, 2022-02-04)"
   sodipodi:docname="tompo.svg"
   xmlns:inkscape="http://www.inkscape.org/namespaces/inkscape"
   xmlns:sodipodi="http://sodipodi.sourceforge.net/DTD/sodipodi-0.dtd"
   xmlns="http://www.w3.org/2000/svg"
   xmlns:svg="http://www.w3.org/2000/svg">
  <sodipodi:namedview
     id="namedview57243"
     pagecolor="#ffffff"
     bordercolor="#666666"
     borderopacity="1.0"
     inkscape:pageshadow="2"
     inkscape:pageopacity="0.0"
     inkscape:pagecheckerboard="0"
     inkscape:document-units="mm"
     showgrid="false"
     inkscape:zoom="1.1189113"
     inkscape:cx="189.02302"
     inkscape:cy="261.41481"
     inkscape:window-width="1600"
     inkscape:window-height="836"
     inkscape:window-x="0"
     inkscape:window-y="0"
     inkscape:window-maximized="1"
     inkscape:current-layer="layer1" />
  <defs
     id="defs57238" />
  <g
     inkscape:label="Layer 1"
     inkscape:groupmode="layer"
     id="layer1">
    <path
       style="fill:#484a4d;fill-opacity:1;stroke:none;stroke-width:4.59094px;stroke-linecap:butt;stroke-linejoin:miter;stroke-opacity:1"
       d="M 17.150176,88.758366 C 8.7217005,85.366041 7.0216628,82.847963 7.0216628,82.847963 c 0,0 -3.1994498,-8.917943 0.9159261,-13.657507 4.1153751,-4.739564 16.8870001,-11.803359 27.4652481,-10.573401 10.578249,1.229963 22.379667,11.368172 25.825298,11.297422 3.445637,-0.07074 5.877451,0.890728 5.877451,0.890728 0,0 0.05425,-5.560509 6.344621,-6.629579 6.290344,-1.069067 12.956707,0.01749 14.513298,2.407584 1.556585,2.390135 5.08555,13.484016 2.727418,17.198128 -2.358133,3.71411 -6.740035,10.304918 -7.840106,10.498766 -1.100083,0.193831 -65.700641,-5.521738 -65.700641,-5.521738 z"
       id="path862" />
    <path
       style="fill:#3a3c40;fill-opacity:1;stroke:none;stroke-width:4.59094px;stroke-linecap:butt;stroke-linejoin:miter;stroke-opacity:1"
       d="m 65.851613,70.450858 c 0,0 -1.939224,-0.997019 -2.151681,-0.09251 -0.69943,2.97776 -0.86768,11.276984 0.598324,13.96073 1.911338,3.498942 6.745885,7.825613 6.745885,7.825613 L 66.229857,81.385445 Z"
       id="path50571"
       sodipodi:nodetypes="cscccc" />
    <path
       style="fill:#dbcbb9;fill-opacity:1;stroke:none;stroke-width:4.59094px;stroke-linecap:butt;stroke-linejoin:miter;stroke-opacity:1"
       d="M 16.841958,83.1271 C 27.975577,72.969508 31.011226,68.943303 43.353484,70.697614 c 12.342251,1.75432 16.543893,6.609226 16.26572,13.781575 -0.278169,7.172346 3.176192,8.038842 -11.544569,8.046601 C 33.353871,92.533615 19.242758,91.058363 17.664842,88.769026 16.086927,86.479689 16.841958,83.1271 16.841958,83.1271 Z"
       id="path860" />
    <path
       style="fill:#000000;fill-opacity:1;stroke:none;stroke-width:6.53556px;stroke-linecap:butt;stroke-linejoin:miter;stroke-opacity:1"
       d="m 71.097369,77.841129 6.253245,-0.02029 -0.306704,5.769679 -5.319549,0.159954 z"
       id="path864"
       sodipodi:nodetypes="ccccc" />
    <path
       style="fill:#000000;fill-opacity:1;stroke:none;stroke-width:6.53556px;stroke-linecap:butt;stroke-linejoin:miter;stroke-opacity:1"
       d="m 81.600156,77.719874 6.253206,-0.02027 -0.306699,5.769673 -5.319517,0.159955 z"
       id="path864-6"
       sodipodi:nodetypes="ccccc" />
    <path
       style="fill:#e1aba1;fill-opacity:1;stroke:none;stroke-width:5.77993px;stroke-linecap:butt;stroke-linejoin:miter;stroke-opacity:1"
       d="m 79.189531,91.883732 c -1.093379,-0.512528 -1.069088,-0.802496 -0.987891,-1.863518 0.02758,-0.360582 0.179004,-1.925631 1.822917,-2.328475 1.943128,-0.129393 3.380954,2.613527 1.922684,4.50087 z"
       id="path868"
       sodipodi:nodetypes="csccc" />
    <path
       style="fill:#e1aba1;fill-opacity:1;stroke:none;stroke-width:4.59094px;stroke-linecap:butt;stroke-linejoin:miter;stroke-opacity:1"
       d="m 87.811647,58.97722 c -0.354654,0.781301 -4.598806,6.388603 -3.178762,6.881031 1.420043,0.492427 3.36435,4.326747 4.526698,3.042395 1.162368,-1.284351 0.570673,-10.257877 0.570673,-10.257877 z"
       id="path870"
       sodipodi:nodetypes="csscc" />
    <path
       style="fill:#e1aba1;fill-opacity:1;stroke:none;stroke-width:4.59094px;stroke-linecap:butt;stroke-linejoin:miter;stroke-opacity:1"
       d="m 68.135194,60.309549 c 0,0 -3.287371,11.865148 -1.029608,10.495656 2.257763,-1.36949 5.024292,-1.886215 5.024292,-4.090654 0,-2.20444 0.01078,-7.124283 -1.421522,-7.577987 -1.432393,-0.453724 -2.573162,1.172985 -2.573162,1.172985 z"
       id="path872"
       sodipodi:nodetypes="csscc" />
    <path
       style="fill:#e1aba1;fill-opacity:1;stroke:none;stroke-width:4.59094px;stroke-linecap:butt;stroke-linejoin:miter;stroke-opacity:1"
       d="M 7.0216628,82.847963 C 3.0160054,84.250996 0.28072611,96.557926 5.885717,95.797924 c 3.8847621,-0.526744 91.934872,-0.07267 91.934872,-0.07267 0,0 -9.629346,-3.410318 -21.991282,-4.209961 C 53.18797,90.050707 25.346837,90.386755 20.411656,89.412605 14.301622,88.206557 7.0216628,82.847973 7.0216628,82.847973 Z"
       id="path874"
       sodipodi:nodetypes="cscssc" />
  </g>
</svg>
